<svg width="40" height="40" viewBox="0 0 40 40" fill="none" xmlns="http://www.w3.org/2000/svg">
<path fill-rule="evenodd" clip-rule="evenodd" d="M31.6666 26.5841V23.3333H27.0874C26.6966 23.3333 26.5013 23.3333 26.3367 23.3497C24.7567 23.5068 23.5068 24.7567 23.3497 26.3367C23.3333 26.5013 23.3333 26.6967 23.3333 27.0874C23.3333 27.5537 23.3333 27.7868 23.354 27.9719C23.5553 29.7681 25.1515 31.0766 26.9523 30.9217C27.1378 30.9058 27.3664 30.86 27.8236 30.7686L28.3172 30.6699C28.9512 30.5431 29.2683 30.4797 29.5358 30.3762C30.6275 29.9539 31.4177 28.99 31.6176 27.8368C31.6666 27.5541 31.6666 27.2308 31.6666 26.5841ZM15 29.9175V26.6667H10.4207C10.03 26.6667 9.83459 26.6667 9.67004 26.683C8.09 26.8402 6.84015 28.09 6.68299 29.6701C6.66663 29.8346 6.66663 30.03 6.66663 30.4207C6.66663 30.887 6.66663 31.1202 6.68736 31.3052C6.88865 33.1014 8.4848 34.4099 10.2856 34.2551C10.4711 34.2391 10.6999 34.1933 11.1569 34.1019L11.6504 34.0032C12.2846 33.8764 12.6016 33.813 12.8691 33.7095C13.9608 33.2873 14.751 32.3234 14.951 31.1701C15 30.8875 15 30.5641 15 29.9175Z" fill="#222222"/>
<path d="M15 26.6667V18.3333M15 26.6667V29.9175M15 26.6667H10.4207M31.6666 23.3333V15M31.6666 23.3333V26.5841M31.6666 23.3333H27.0874M31.6666 15L15 18.3333M31.6666 15V14.7987M15 18.3333V15.4653M15 15.4653C15 12.8491 15 11.541 15.7555 10.6194C16.511 9.69778 17.7937 9.44123 20.3592 8.92814M15 15.4653V13.2792C15 11.7095 15 10.9246 15.4533 10.3716C15.9066 9.81866 16.6762 9.66474 18.2155 9.35688L20.3592 8.92814M15 15.4653V29.9175M20.3592 8.92814L23.6925 8.26148M23.6925 8.26148C27.3819 7.52361 29.2266 7.15467 30.4466 8.15486C31.6666 9.15505 31.6666 11.0363 31.6666 14.7987M23.6925 8.26148L26.8822 7.62355C29.0958 7.18083 30.2026 6.95947 30.9346 7.55958C31.6666 8.15969 31.6666 9.28842 31.6666 11.5459V14.7987M31.6666 26.5841C31.6666 27.2308 31.6666 27.5541 31.6176 27.8368C31.4177 28.99 30.6275 29.9539 29.5358 30.3762C29.2683 30.4797 28.9512 30.5431 28.3172 30.6699M31.6666 26.5841V26.7208C31.6666 28.2905 31.6666 29.0754 31.2133 29.6284C30.76 30.1813 29.9904 30.3352 28.4511 30.6431L28.3172 30.6699M28.3172 30.6699L27.8236 30.7686M27.8236 30.7686C27.3664 30.86 27.1378 30.9058 26.9523 30.9217C25.1515 31.0766 23.5553 29.7681 23.354 27.9719C23.3333 27.7868 23.3333 27.5537 23.3333 27.0874M27.8236 30.7686V30.7686C25.891 31.1551 24.9247 31.3484 24.2406 30.9022C24.1191 30.8229 24.0066 30.7307 23.905 30.627C23.3333 30.0438 23.3333 29.0583 23.3333 27.0874V27.0874M23.3333 27.0874C23.3333 26.6967 23.3333 26.5013 23.3497 26.3367C23.5068 24.7567 24.7567 23.5068 26.3367 23.3497C26.5013 23.3333 26.6966 23.3333 27.0874 23.3333M23.3333 27.0874V27.0874C23.3333 25.4397 23.3333 24.6159 23.7893 24.0621C23.8712 23.9626 23.9625 23.8712 24.062 23.7893C24.6159 23.3333 25.4397 23.3333 27.0874 23.3333V23.3333M15 29.9175C15 30.5641 15 30.8875 14.951 31.1701C14.751 32.3234 13.9608 33.2873 12.8691 33.7095C12.6016 33.813 12.2846 33.8764 11.6504 34.0032M15 29.9175V30.0541C15 31.6239 15 32.4087 14.5466 32.9617C14.0933 33.5147 13.3237 33.6686 11.7844 33.9764L11.6504 34.0032M11.6504 34.0032L11.1569 34.1019M11.1569 34.1019C10.6999 34.1933 10.4711 34.2391 10.2856 34.2551C8.4848 34.4099 6.88865 33.1014 6.68736 31.3052C6.66663 31.1202 6.66663 30.887 6.66663 30.4207M11.1569 34.1019V34.1019C9.22431 34.4885 8.25799 34.6817 7.57394 34.2355C7.45242 34.1562 7.33989 34.064 7.23833 33.9604C6.66663 33.3771 6.66663 32.3917 6.66663 30.4207V30.4207M6.66663 30.4207C6.66663 30.03 6.66663 29.8346 6.68299 29.6701C6.84015 28.09 8.09 26.8402 9.67004 26.683C9.83459 26.6667 10.03 26.6667 10.4207 26.6667M6.66663 30.4207V30.4207C6.66663 28.7731 6.66663 27.9492 7.12264 27.3954C7.20455 27.2959 7.29588 27.2046 7.39536 27.1227C7.94921 26.6667 8.77304 26.6667 10.4207 26.6667V26.6667" stroke="#222222" stroke-width="2"/>
</svg>
