<svg width="100" height="100" viewBox="0 0 100 100" fill="none" xmlns="http://www.w3.org/2000/svg">
<path d="M58.3333 62.5L41.6666 79.1667L58.3333 95.8333" stroke="#222222"/>
<path d="M75.259 35.4167C77.9741 40.1193 79.3224 45.4864 79.1523 50.9138C78.9822 56.3413 77.3003 61.6134 74.2961 66.1367C71.2918 70.66 67.0845 74.2549 62.1478 76.5165C57.2111 78.7781 51.7411 79.6167 46.3536 78.9378" stroke="#222222" stroke-linecap="round"/>
<path d="M41.6667 37.5L58.3334 20.8333L41.6667 4.16667" stroke="#222222"/>
<path d="M24.741 64.5833C21.9865 59.8125 20.6395 54.3591 20.8559 48.8545C21.0722 43.3498 22.8431 38.019 25.9635 33.4791C29.0839 28.9392 33.4263 25.3758 38.4879 23.2014C43.5495 21.027 49.1234 20.3306 54.5644 21.1927" stroke="#222222" stroke-linecap="round"/>
</svg>
